<?xml version="1.0"?>
<svg xmlns="http://www.w3.org/2000/svg" xmlns:xlink="http://www.w3.org/1999/xlink" version="1.1" id="Capa_1" x="0px" y="0px" viewBox="0 0 60 60" style="enable-background:new 0 0 60 60;" xml:space="preserve" width="512px" height="512px" class=""><g><rect x="16.5" y="31" style="fill:#E0CF1F" width="10" height="6" data-original="#871B1B" class="" data-old_color="#E1D01E"/><path style="fill:#424A60" d="M3.5,0c-0.552,0-1,0.447-1,1v3v55c0,0.553,0.448,1,1,1s1-0.447,1-1V4V1C4.5,0.447,4.052,0,3.5,0z" data-original="#424A60" class=""/><rect x="4.5" y="4" style="fill:#EDD906" width="22" height="29" data-original="#DD352E" class="" data-old_color="#EEDA06"/><path style="fill:#FFEF00" d="M26.5,9v24h-6c-2.209,0-4,1.791-4,4c0,2.209,1.791,4,4,4h4h33l-11-16l11-16H26.5z" data-original="#C03A2B" class="" data-old_color="#FF8400"/><path style="fill:#FFE800" d="M16.5,37c0,2.209,1.791,4,4,4h4h2v-8h-6C18.291,33,16.5,34.791,16.5,37z" data-original="#B02721" class="active-path" data-old_color="#FFE000"/></g> </svg>
